<svg xmlns="http://www.w3.org/2000/svg" fill="none" stroke-linecap="square" stroke-miterlimit="10" width="300" height="300" viewBox="0 0 120 120"><defs/><clipPath id="a"><path d="M0 0h960v720H0V0z"/></clipPath><g clip-path="url(#a)" transform="translate(-350 -220)"><path fill="none" d="M0 0h960v720H0z"/><path fill="#f8f8f8" fill-rule="evenodd" d="M379.45 313.03v-28.27a28.27 28.27 0 0156.54 0v28.27z"/><path stroke="#5eb9e0" stroke-linecap="butt" stroke-linejoin="round" stroke-width="3" d="M379.45 313.03v-28.27h0a28.27 28.27 0 0156.54 0v28.27z"/><path fill="#f8f8f8" fill-rule="evenodd" d="M396.75 276.75a5.9 5.9 0 1111.81 0 5.9 5.9 0 11-11.81 0z"/><path stroke="#5eb9e0" stroke-linecap="butt" stroke-linejoin="round" stroke-width="3" d="M396.75 276.75h0a5.9 5.9 0 015.9-5.9h0a5.9 5.9 0 015.91 5.9h0a5.9 5.9 0 01-5.9 5.9h0a5.9 5.9 0 01-5.91-5.9z"/><path fill="#f8f8f8" fill-rule="evenodd" d="M417.97 276.75a5.9 5.9 0 1111.81 0 5.9 5.9 0 11-11.81 0z"/><path stroke="#5eb9e0" stroke-linecap="butt" stroke-linejoin="round" stroke-width="3" d="M417.97 276.75h0a5.9 5.9 0 015.9-5.9h0a5.9 5.9 0 015.9 5.9h0a5.9 5.9 0 01-5.9 5.9h0a5.9 5.9 0 01-5.9-5.9z"/><path fill="none" d="M465.22 270.24l-29.23 14.52"/><path stroke="#5eb9e0" stroke-linecap="butt" stroke-linejoin="round" stroke-width="3" d="M455.04 275.3l-19.05 9.46"/><path fill="#5eb9e0" stroke="#5eb9e0" stroke-linecap="butt" stroke-width="3" d="M463.88 270.9a4.93 4.93 0 11-8.84 4.4 4.93 4.93 0 018.84-4.4z"/><path fill="none" d="M354.29 277.64l25.16 7.12"/><path stroke="#5eb9e0" stroke-linecap="butt" stroke-linejoin="round" stroke-width="3" d="M365.23 280.74l14.22 4.02"/><path fill="#5eb9e0" stroke="#5eb9e0" stroke-linecap="butt" stroke-width="3" d="M355.73 278.05a4.94 4.94 0 119.5 2.69 4.94 4.94 0 01-9.5-2.69z"/></g></svg>
